<?xml version="1.0" encoding="UTF-8"?>
<svg id="Layer_2" data-name="Layer 2" xmlns="http://www.w3.org/2000/svg" xmlns:xlink="http://www.w3.org/1999/xlink" viewBox="0 0 94.22 90.19">
  <defs>
    <style>
      .cls-1 {
        fill: url(#radial-gradient);
      }

      .cls-1, .cls-2 {
        stroke-width: 0px;
      }

      .cls-2 {
        fill: #29abe2;
      }
    </style>
    <radialGradient id="radial-gradient" cx="47.11" cy="45.1" fx="47.11" fy="45.1" r="46.11" gradientUnits="userSpaceOnUse">
      <stop offset=".56" stop-color="#29abe2"/>
      <stop offset=".75" stop-color="#55b5de"/>
      <stop offset="1" stop-color="#8dc2db"/>
    </radialGradient>
  </defs>
  <g id="Layer_1-2" data-name="Layer 1">
    <g>
      <path class="cls-1" d="M94.21,15.49c0-2.47,0-4.93,0-7.4,0-4.46-3.65-8.08-8.12-8.08-4.62,0-9.25-.04-13.87.03-.98.01-2.02.24-2.9.64-3.15,1.43-4.61,4.05-4.68,7.42-.08,4.06.05,8.13-.06,12.19-.05,1.68-.33,3.39-.77,5.02-1.2,4.38-3.77,7.97-7.04,11.02-4.03,3.77-8.17,7.42-12.31,11.06-3.15,2.77-6.42,5.4-10.07,7.51-5.1,2.94-10.51,4.68-16.48,4.51-3.33-.1-6.67-.02-10.01-.02-4.31,0-7.82,3.42-7.86,7.72-.05,5.18-.05,10.37,0,15.56.04,4.03,3.62,7.5,7.64,7.5,4.6,0,9.2-.08,13.79.03,4.11.1,8.09-3.46,8.01-8.03-.07-3.98-.03-7.96,0-11.94.02-2.63.57-5.15,1.75-7.51,1.83-3.68,4.77-6.37,7.87-8.93,4.88-4.02,9.7-8.12,14.6-12.12,2.51-2.05,5.03-4.12,7.74-5.88,4.55-2.95,9.59-4.57,15.05-4.69,3.25-.07,6.5-.14,9.75-.07,4.15.09,8.03-3.67,7.98-8.13-.02-2.47,0-4.93,0-7.4Z"/>
      <path class="cls-2" d="M94.21,67.46c0-4.45-3.65-8.08-8.11-8.08-15.13,0-30.27,0-45.4,0-4.37,0-7.86,3.51-7.86,7.89,0,4.74,0,9.47,0,14.21,0,.72.04,1.46.15,2.17.57,3.58,3.9,6.58,7.48,6.54,7.62-.08,15.24-.02,22.87-.02,7.71,0,15.41,0,23.12,0,.34,0,.68.01,1-.05,4.04-.79,6.74-4.08,6.74-8.19,0-4.82,0-9.64,0-14.46Z"/>
      <path class="cls-2" d="M61.24,7.89c0-4.25-3.62-7.88-7.86-7.88-15.19,0-30.39,0-45.58.01-.66,0-1.34.11-1.97.29C2.42,1.3.04,4.46.03,8.06.01,12.93.11,17.81,0,22.69c-.09,4.22,3.32,8.45,8.35,8.36,7.4-.13,14.8-.03,22.2-.03h0c7.6-.01,15.19,0,22.79-.01,4.34,0,7.9-3.56,7.91-7.89,0-5.07,0-10.15,0-15.22Z"/>
    </g>
  </g>
</svg>